<svg width="3009" height="454" viewBox="0 0 3009 454" fill="none" xmlns="http://www.w3.org/2000/svg">
<path d="M44.5654 453.105C36.9482 453.105 29.0381 452.52 20.835 451.348C12.6318 450.322 5.82031 449.077 0.400391 447.612V394.878C5.82031 396.343 10.9473 397.368 15.7812 397.954C20.4688 398.687 25.8154 399.053 31.8213 399.053C40.9033 399.053 48.5938 396.489 54.8926 391.362C61.1914 386.382 64.3408 376.494 64.3408 361.699V99.3457H131.357V371.587C131.357 386.528 128.501 400.151 122.788 412.456C117.075 424.907 107.847 434.795 95.1025 442.119C82.3584 449.443 65.5127 453.105 44.5654 453.105ZM61.4844 35.8447C61.4844 23.2471 65 14.6777 72.0312 10.1367C79.209 5.44922 87.8516 3.10547 97.959 3.10547C107.92 3.10547 116.489 5.44922 123.667 10.1367C130.845 14.6777 134.434 23.2471 134.434 35.8447C134.434 48.2959 130.845 56.9385 123.667 61.7725C116.489 66.46 107.92 68.8037 97.959 68.8037C87.8516 68.8037 79.209 66.46 72.0312 61.7725C65 56.9385 61.4844 48.2959 61.4844 35.8447ZM425.132 221.733C425.132 242.241 422.349 260.405 416.782 276.226C411.362 292.046 403.379 305.449 392.832 316.436C382.432 327.275 369.834 335.479 355.039 341.045C340.391 346.611 323.838 349.395 305.381 349.395C288.096 349.395 272.202 346.611 257.7 341.045C243.345 335.479 230.82 327.275 220.127 316.436C209.58 305.449 201.377 292.046 195.518 276.226C189.805 260.405 186.948 242.241 186.948 221.733C186.948 194.487 191.782 171.416 201.45 152.52C211.118 133.623 224.888 119.268 242.759 109.453C260.63 99.6387 281.943 94.7314 306.699 94.7314C329.697 94.7314 350.059 99.6387 367.783 109.453C385.654 119.268 399.644 133.623 409.751 152.52C420.005 171.416 425.132 194.487 425.132 221.733ZM255.283 221.733C255.283 237.847 257.041 251.396 260.557 262.383C264.072 273.369 269.565 281.646 277.036 287.212C284.507 292.778 294.248 295.562 306.26 295.562C318.125 295.562 327.72 292.778 335.044 287.212C342.515 281.646 347.935 273.369 351.304 262.383C354.819 251.396 356.577 237.847 356.577 221.733C356.577 205.474 354.819 191.997 351.304 181.304C347.935 170.464 342.515 162.334 335.044 156.914C327.573 151.494 317.832 148.784 305.82 148.784C288.096 148.784 275.205 154.863 267.148 167.021C259.238 179.18 255.283 197.417 255.283 221.733ZM651.89 272.051C651.89 288.75 647.935 302.886 640.024 314.458C632.261 325.884 620.615 334.6 605.088 340.605C589.561 346.465 570.225 349.395 547.08 349.395C529.941 349.395 515.22 348.296 502.915 346.099C490.757 343.901 478.452 340.239 466.001 335.112V279.741C479.331 285.747 493.613 290.728 508.848 294.683C524.229 298.491 537.705 300.396 549.277 300.396C562.314 300.396 571.616 298.491 577.183 294.683C582.896 290.728 585.752 285.601 585.752 279.302C585.752 275.2 584.58 271.538 582.236 268.315C580.039 264.946 575.205 261.211 567.734 257.109C560.264 252.861 548.545 247.368 532.578 240.63C517.197 234.185 504.526 227.666 494.565 221.074C484.751 214.482 477.427 206.719 472.593 197.783C467.905 188.701 465.562 177.202 465.562 163.286C465.562 140.581 474.351 123.516 491.929 112.09C509.653 100.518 533.311 94.7314 562.9 94.7314C578.135 94.7314 592.637 96.2695 606.406 99.3457C620.322 102.422 634.604 107.329 649.253 114.067L629.038 162.407C616.88 157.134 605.381 152.812 594.541 149.443C583.848 146.074 572.935 144.39 561.802 144.39C551.987 144.39 544.59 145.708 539.609 148.345C534.629 150.981 532.139 155.01 532.139 160.43C532.139 164.385 533.384 167.9 535.874 170.977C538.511 174.053 543.491 177.495 550.815 181.304C558.286 184.966 569.199 189.727 583.555 195.586C597.471 201.299 609.556 207.305 619.81 213.604C630.063 219.756 637.974 227.446 643.54 236.675C649.106 245.757 651.89 257.549 651.89 272.051ZM805.479 94.7314C828.184 94.7314 847.739 99.126 864.146 107.915C880.552 116.558 893.223 129.155 902.158 145.708C911.094 162.261 915.562 182.476 915.562 206.353V238.872H757.139C757.871 257.769 763.511 272.637 774.058 283.477C784.751 294.17 799.546 299.517 818.442 299.517C834.116 299.517 848.472 297.905 861.509 294.683C874.546 291.46 887.949 286.626 901.719 280.181V332.036C889.561 338.042 876.816 342.437 863.486 345.22C850.303 348.003 834.263 349.395 815.366 349.395C790.757 349.395 768.931 344.854 749.888 335.771C730.991 326.689 716.123 312.847 705.283 294.243C694.59 275.64 689.243 252.202 689.243 223.931C689.243 195.22 694.077 171.343 703.745 152.3C713.56 133.11 727.183 118.755 744.614 109.233C762.046 99.5654 782.334 94.7314 805.479 94.7314ZM805.918 142.412C792.881 142.412 782.041 146.587 773.398 154.937C764.902 163.286 759.995 176.396 758.677 194.268H852.72C852.573 184.307 850.742 175.444 847.227 167.681C843.857 159.917 838.73 153.765 831.846 149.224C825.107 144.683 816.465 142.412 805.918 142.412ZM888.535 0.249023V4.86328C884.287 8.96484 878.721 14.0186 871.836 20.0244C864.951 26.0303 857.554 32.3291 849.644 38.9209C841.733 45.3662 833.97 51.5918 826.353 57.5977C818.735 63.457 812.07 68.3643 806.357 72.3193H761.753V66.3867C766.587 60.8203 772.153 54.2285 778.452 46.6113C784.897 38.8477 791.27 30.8643 797.568 22.6611C803.867 14.458 809.141 6.9873 813.389 0.249023H888.535Z" fill="#6b7280"/>
<path d="M1037.07 3.10547V72.7588C1037.07 84.917 1036.63 96.4893 1035.75 107.476C1035.02 118.462 1034.43 126.226 1033.99 130.767H1037.51C1042.78 122.271 1049.01 115.386 1056.19 110.112C1063.51 104.839 1071.57 100.957 1080.36 98.4668C1089.15 95.9766 1098.59 94.7314 1108.7 94.7314C1126.43 94.7314 1141.88 97.8809 1155.06 104.18C1168.25 110.332 1178.5 120.073 1185.83 133.403C1193.15 146.587 1196.81 163.726 1196.81 184.819V345H1129.79V201.519C1129.79 183.94 1126.57 170.684 1120.13 161.748C1113.68 152.812 1103.72 148.345 1090.24 148.345C1076.77 148.345 1066.15 151.494 1058.38 157.793C1050.62 163.945 1045.13 173.101 1041.9 185.259C1038.68 197.271 1037.07 211.992 1037.07 229.424V345H970.054V3.10547H1037.07ZM1491.25 99.3457V345H1439.83L1430.82 313.579H1427.3C1422.03 321.929 1415.44 328.74 1407.53 334.014C1399.62 339.287 1390.9 343.169 1381.38 345.659C1371.86 348.149 1361.97 349.395 1351.72 349.395C1334.14 349.395 1318.83 346.318 1305.8 340.166C1292.76 333.867 1282.58 324.126 1275.25 310.942C1268.08 297.759 1264.49 280.62 1264.49 259.526V99.3457H1331.5V242.827C1331.5 260.405 1334.65 273.662 1340.95 282.598C1347.25 291.533 1357.29 296.001 1371.05 296.001C1384.68 296.001 1395.37 292.925 1403.13 286.772C1410.9 280.474 1416.32 271.318 1419.39 259.307C1422.62 247.148 1424.23 232.354 1424.23 214.922V99.3457H1491.25ZM1850.06 94.7314C1877.89 94.7314 1898.91 101.909 1913.12 116.265C1927.48 130.474 1934.65 153.325 1934.65 184.819V345H1867.42V201.519C1867.42 183.94 1864.41 170.684 1858.41 161.748C1852.4 152.812 1843.1 148.345 1830.5 148.345C1812.78 148.345 1800.18 154.717 1792.71 167.461C1785.24 180.059 1781.5 198.149 1781.5 221.733V345H1714.49V201.519C1714.49 189.8 1713.17 179.985 1710.53 172.075C1707.9 164.165 1703.87 158.232 1698.45 154.277C1693.03 150.322 1686.07 148.345 1677.57 148.345C1665.12 148.345 1655.31 151.494 1648.13 157.793C1641.1 163.945 1636.04 173.101 1632.97 185.259C1630.04 197.271 1628.57 211.992 1628.57 229.424V345H1561.56V99.3457H1612.75L1621.76 130.767H1625.5C1630.48 122.271 1636.7 115.386 1644.17 110.112C1651.79 104.839 1660.14 100.957 1669.22 98.4668C1678.31 95.9766 1687.53 94.7314 1696.91 94.7314C1714.93 94.7314 1730.16 97.6611 1742.61 103.521C1755.21 109.38 1764.88 118.462 1771.62 130.767H1777.55C1784.87 118.169 1795.2 109.014 1808.53 103.301C1822.01 97.5879 1835.85 94.7314 1850.06 94.7314ZM2104.28 94.292C2137.24 94.292 2162.51 101.47 2180.09 115.825C2197.67 130.181 2206.46 152.007 2206.46 181.304V345H2159.65L2146.69 311.602H2144.93C2137.9 320.391 2130.72 327.568 2123.4 333.135C2116.07 338.701 2107.65 342.803 2098.13 345.439C2088.61 348.076 2077.04 349.395 2063.41 349.395C2048.91 349.395 2035.87 346.611 2024.3 341.045C2012.88 335.479 2003.87 326.982 1997.28 315.557C1990.68 303.984 1987.39 289.336 1987.39 271.611C1987.39 245.537 1996.54 226.348 2014.85 214.043C2033.16 201.592 2060.63 194.707 2097.25 193.389L2139.88 192.07V181.304C2139.88 168.413 2136.51 158.965 2129.77 152.959C2123.03 146.953 2113.66 143.95 2101.65 143.95C2089.78 143.95 2078.13 145.635 2066.71 149.004C2055.28 152.373 2043.86 156.621 2032.43 161.748L2010.24 116.484C2023.28 109.6 2037.85 104.18 2053.96 100.225C2070.22 96.2695 2087 94.292 2104.28 94.292ZM2139.88 231.182L2113.95 232.061C2092.27 232.646 2077.18 236.528 2068.69 243.706C2060.34 250.884 2056.16 260.332 2056.16 272.051C2056.16 282.305 2059.17 289.629 2065.17 294.023C2071.18 298.271 2079.01 300.396 2088.68 300.396C2103.04 300.396 2115.12 296.147 2124.94 287.651C2134.9 279.155 2139.88 267.07 2139.88 251.396V231.182ZM2415.2 94.7314C2441.42 94.7314 2462.51 101.909 2478.48 116.265C2494.44 130.474 2502.43 153.325 2502.43 184.819V345H2435.41V201.519C2435.41 183.94 2432.19 170.684 2425.74 161.748C2419.44 152.812 2409.48 148.345 2395.86 148.345C2375.35 148.345 2361.36 155.303 2353.89 169.219C2346.42 183.135 2342.69 203.203 2342.69 229.424V345H2275.67V99.3457H2326.87L2335.87 130.767H2339.61C2344.88 122.271 2351.4 115.386 2359.17 110.112C2367.08 104.839 2375.79 100.957 2385.31 98.4668C2394.98 95.9766 2404.94 94.7314 2415.2 94.7314ZM2672.71 94.7314C2695.42 94.7314 2714.98 99.126 2731.38 107.915C2747.79 116.558 2760.46 129.155 2769.39 145.708C2778.33 162.261 2782.8 182.476 2782.8 206.353V238.872H2624.38C2625.11 257.769 2630.75 272.637 2641.29 283.477C2651.99 294.17 2666.78 299.517 2685.68 299.517C2701.35 299.517 2715.71 297.905 2728.75 294.683C2741.78 291.46 2755.19 286.626 2768.96 280.181V332.036C2756.8 338.042 2744.05 342.437 2730.72 345.22C2717.54 348.003 2701.5 349.395 2682.6 349.395C2657.99 349.395 2636.17 344.854 2617.12 335.771C2598.23 326.689 2583.36 312.847 2572.52 294.243C2561.83 275.64 2556.48 252.202 2556.48 223.931C2556.48 195.22 2561.31 171.343 2570.98 152.3C2580.8 133.11 2594.42 118.755 2611.85 109.233C2629.28 99.5654 2649.57 94.7314 2672.71 94.7314ZM2673.15 142.412C2660.12 142.412 2649.28 146.587 2640.63 154.937C2632.14 163.286 2627.23 176.396 2625.91 194.268H2719.96C2719.81 184.307 2717.98 175.444 2714.46 167.681C2711.09 159.917 2705.97 153.765 2699.08 149.224C2692.34 144.683 2683.7 142.412 2673.15 142.412ZM3008.68 272.051C3008.68 288.75 3004.72 302.886 2996.81 314.458C2989.05 325.884 2977.4 334.6 2961.88 340.605C2946.35 346.465 2927.01 349.395 2903.87 349.395C2886.73 349.395 2872.01 348.296 2859.7 346.099C2847.54 343.901 2835.24 340.239 2822.79 335.112V279.741C2836.12 285.747 2850.4 290.728 2865.63 294.683C2881.02 298.491 2894.49 300.396 2906.06 300.396C2919.1 300.396 2928.4 298.491 2933.97 294.683C2939.68 290.728 2942.54 285.601 2942.54 279.302C2942.54 275.2 2941.37 271.538 2939.02 268.315C2936.83 264.946 2931.99 261.211 2924.52 257.109C2917.05 252.861 2905.33 247.368 2889.37 240.63C2873.98 234.185 2861.31 227.666 2851.35 221.074C2841.54 214.482 2834.21 206.719 2829.38 197.783C2824.69 188.701 2822.35 177.202 2822.35 163.286C2822.35 140.581 2831.14 123.516 2848.72 112.09C2866.44 100.518 2890.1 94.7314 2919.69 94.7314C2934.92 94.7314 2949.42 96.2695 2963.19 99.3457C2977.11 102.422 2991.39 107.329 3006.04 114.067L2985.83 162.407C2973.67 157.134 2962.17 152.812 2951.33 149.443C2940.63 146.074 2929.72 144.39 2918.59 144.39C2908.77 144.39 2901.38 145.708 2896.4 148.345C2891.42 150.981 2888.93 155.01 2888.93 160.43C2888.93 164.385 2890.17 167.9 2892.66 170.977C2895.3 174.053 2900.28 177.495 2907.6 181.304C2915.07 184.966 2925.99 189.727 2940.34 195.586C2954.26 201.299 2966.34 207.305 2976.6 213.604C2986.85 219.756 2994.76 227.446 3000.33 236.675C3005.89 245.757 3008.68 257.549 3008.68 272.051Z" fill="#f9a826"/>
</svg>
