<svg xmlns="http://www.w3.org/2000/svg" data-name="Layer 1" width="1029.56255" height="548.69495"
  viewBox="0 0 1029.56255 548.69495" xmlns:xlink="http://www.w3.org/1999/xlink">
  <path
    d="M675.31479,717.62706l-14.5923-6.1443-10.01026-73.15138H517.40762L506.55725,711.1839l-13.05512,6.52746a3.10016,3.10016,0,0,0,1.38657,5.873H674.11213A3.1,3.1,0,0,0,675.31479,717.62706Z"
    transform="translate(-85.21873 -175.65252)" fill="#e6e6e6" />
  <path
    d="M912.20621,648.06385H257.377a12.97344,12.97344,0,0,1-12.9443-12.97332V542.751h680.7178v92.33952A12.97356,12.97356,0,0,1,912.20621,648.06385Z"
    transform="translate(-85.21873 -175.65252)" fill="#ccc" />
  <path
    d="M925.835,586.39288h-682V191.29161a15.6572,15.6572,0,0,1,15.63964-15.63909H910.1952A15.65735,15.65735,0,0,1,925.835,191.29161Z"
    transform="translate(-85.21873 -175.65252)" fill="#3f3d56" />
  <path
    d="M885.10186,557.71639H284.56818a12.07023,12.07023,0,0,1-12.057-12.05667v-329.274a12.07087,12.07087,0,0,1,12.057-12.05741H885.10186a12.07088,12.07088,0,0,1,12.057,12.05741v329.274A12.07024,12.07024,0,0,1,885.10186,557.71639Z"
    transform="translate(-85.21873 -175.65252)" fill="#fff" />
  <rect x="219.58182" y="153.2027" width="98.80647" height="9.27916" fill="#e5e5e5" />
  <rect x="219.58182" y="175.70578" width="98.80647" height="9.27916" fill="#e5e5e5" />
  <rect x="219.58182" y="198.70578" width="98.80647" height="9.27916" fill="#e5e5e5" />
  <rect x="219.58182" y="221.70578" width="98.80647" height="9.27916" fill="#e5e5e5" />
  <rect x="242.98506" y="250.93227" width="52" height="8.05267" fill="#111827" />
  <rect x="471.19198" y="210.75367" width="0.94479" height="2.83436" fill="#e5e5e5" />
  <path
    d="M557.35549,449.63117h-.94478V443.592h.94478Zm0-12.07807h-.94478v-6.03916h.94478Zm0-12.07831h-.94478v-6.03893h.94478Zm0-12.07808h-.94478v-6.03916h.94478Zm0-12.07808h-.94478v-6.03916h.94478Z"
    transform="translate(-85.21873 -175.65252)" fill="#e5e5e5" />
  <rect x="471.19198" y="280.01781" width="0.94479" height="2.83436" fill="#e5e5e5" />
  <rect x="574.64601" y="210.75367" width="0.94479" height="2.83436" fill="#e5e5e5" />
  <path
    d="M660.80952,449.63117h-.94479V443.592h.94479Zm0-12.07807h-.94479v-6.03916h.94479Zm0-12.07831h-.94479v-6.03893h.94479Zm0-12.07808h-.94479v-6.03916h.94479Zm0-12.07808h-.94479v-6.03916h.94479Z"
    transform="translate(-85.21873 -175.65252)" fill="#e5e5e5" />
  <rect x="574.64601" y="280.01781" width="0.94479" height="2.83436" fill="#e5e5e5" />
  <rect x="626.83111" y="155.3061" width="0.94479" height="2.83436" fill="#e5e5e5" />
  <path
    d="M712.99462,449.86668h-.94478V444.063h.94478Zm0-11.6073h-.94478V432.4555h.94478Zm0-11.60753h-.94478V420.8482h.94478Zm0-11.6073h-.94478V409.2409h.94478Zm0-11.6073h-.94478v-5.80388h.94478Zm0-11.60753h-.94478v-5.80365h.94478Zm0-11.60731h-.94478v-5.80365h.94478Zm0-11.6073h-.94478v-5.80365h.94478Zm0-11.60753h-.94478v-5.80365h.94478Zm0-11.6073h-.94478v-5.80365h.94478Z"
    transform="translate(-85.21873 -175.65252)" fill="#e5e5e5" />
  <rect x="626.83111" y="280.01781" width="0.94479" height="2.83436" fill="#e5e5e5" />
  <rect x="678.49585" y="132.63125" width="0.94479" height="2.83436" fill="#e5e5e5" />
  <path
    d="M764.65936,449.88836h-.94479v-5.7822h.94479Zm0-11.56417h-.94479V432.542h.94479Zm0-11.56416h-.94479v-5.7822h.94479Zm0-11.56417h-.94479v-5.7822h.94479Zm0-11.56417h-.94479v-5.7822h.94479Zm0-11.56416h-.94479v-5.7822h.94479Zm0-11.56417h-.94479v-5.7822h.94479Zm0-11.56417h-.94479V363.157h.94479Zm0-11.56416h-.94479v-5.7822h.94479Zm0-11.56417h-.94479v-5.7822h.94479Zm0-11.56417h-.94479v-5.7822h.94479Zm0-11.56417h-.94479v-5.78219h.94479Z"
    transform="translate(-85.21873 -175.65252)" fill="#e5e5e5" />
  <rect x="678.49585" y="280.01781" width="0.94479" height="2.83436" fill="#e5e5e5" />
  <rect x="523.15519" y="172.78464" width="0.94479" height="2.83436" fill="#e5e5e5" />
  <path
    d="M609.3187,450.17576h-.94478V444.6812h.94478Zm0-10.98936h-.94478v-5.49456h.94478Zm0-10.98936h-.94478v-5.49456h.94478Zm0-10.98936h-.94478v-5.49456h.94478Zm0-10.98936h-.94478v-5.49456h.94478Zm0-10.98936h-.94478v-5.49457h.94478Zm0-10.98936h-.94478V378.745h.94478Zm0-10.98936h-.94478v-5.49457h.94478Zm0-10.98936h-.94478v-5.49457h.94478Z"
    transform="translate(-85.21873 -175.65252)" fill="#e5e5e5" />
  <rect x="523.15519" y="280.01781" width="0.94479" height="2.83436" fill="#e5e5e5" />
  <path
    d="M817.06089,459.82073H504.27977a.97891.97891,0,0,1-.97886-.97886v-149.916a.97886.97886,0,0,1,1.95772,0V457.863H817.06089a.97886.97886,0,1,1,0,1.95772Z"
    transform="translate(-85.21873 -175.65252)" fill="#3f3d56" />
  <polygon
    points="575.548 212.069 523.544 173.118 472.251 211.537 471.077 209.97 523.544 170.672 575.3 209.438 626.731 153.155 626.938 153.071 678.817 132.168 679.549 133.985 627.876 154.804 575.548 212.069"
    fill="#3f3d56" />
  <circle cx="471.66442" cy="210.75355" r="5.87317" fill="#111827" />
  <circle cx="523.54411" cy="172.57792" r="5.87317" fill="#111827" />
  <circle cx="575.42381" cy="210.75355" r="5.87317" fill="#111827" />
  <circle cx="627.3035" cy="153.97954" r="5.87317" fill="#111827" />
  <circle cx="679.1832" cy="132.44458" r="5.87317" fill="#111827" />
  <rect x="347.26975" y="28.67555" width="2" height="353.38818" fill="#e5e5e5" />
</svg>
