<svg width="429" height="451" viewBox="0 0 429 451" fill="none" xmlns="http://www.w3.org/2000/svg">
<path d="M44.7305 450.105C37.1133 450.105 29.2031 449.52 21 448.348C12.7969 447.322 5.98535 446.077 0.56543 444.612V391.878C5.98535 393.343 11.1123 394.368 15.9463 394.954C20.6338 395.687 25.9805 396.053 31.9863 396.053C41.0684 396.053 48.7588 393.489 55.0576 388.362C61.3564 383.382 64.5059 373.494 64.5059 358.699V96.3457H131.522V368.587C131.522 383.528 128.666 397.151 122.953 409.456C117.24 421.907 108.012 431.795 95.2676 439.119C82.5234 446.443 65.6777 450.105 44.7305 450.105ZM61.6494 32.8447C61.6494 20.2471 65.165 11.6777 72.1963 7.13672C79.374 2.44922 88.0166 0.105469 98.124 0.105469C108.085 0.105469 116.654 2.44922 123.832 7.13672C131.01 11.6777 134.599 20.2471 134.599 32.8447C134.599 45.2959 131.01 53.9385 123.832 58.7725C116.654 63.46 108.085 65.8037 98.124 65.8037C88.0166 65.8037 79.374 63.46 72.1963 58.7725C65.165 53.9385 61.6494 45.2959 61.6494 32.8447Z" fill="#6b7280"/>
<path d="M269.071 0.105469V69.7588C269.071 81.917 268.632 93.4893 267.753 104.476C267.021 115.462 266.435 123.226 265.995 127.767H269.511C274.784 119.271 281.01 112.386 288.188 107.112C295.512 101.839 303.568 97.957 312.357 95.4668C321.146 92.9766 330.595 91.7314 340.702 91.7314C358.427 91.7314 373.881 94.8809 387.064 101.18C400.248 107.332 410.502 117.073 417.826 130.403C425.15 143.587 428.812 160.726 428.812 181.819V342H361.796V198.519C361.796 180.94 358.573 167.684 352.128 158.748C345.683 149.812 335.722 145.345 322.245 145.345C308.769 145.345 298.148 148.494 290.385 154.793C282.621 160.945 277.128 170.101 273.905 182.259C270.683 194.271 269.071 208.992 269.071 226.424V342H202.055V0.105469H269.071Z" fill="#f9a826"/>
</svg>
